<svg width="142" height="142" viewBox="0 0 142 142" fill="none" xmlns="http://www.w3.org/2000/svg">
<rect width="142" height="142" rx="24" fill="#0096C7"/>
<path fill-rule="evenodd" clip-rule="evenodd" d="M67.5877 115.164L33.2521 74.5848L29.9056 70.6299L29.8287 70.539H29.8265H29.8005H29.7982L29.8005 70.5363L29.8135 70.5209L29.8005 70.5056H29.8265L29.8287 70.5029L29.8921 70.4281L33.2521 66.4571L67.5855 25.8806H105.708H112.585L108.143 31.1306L74.8135 70.5209L108.145 109.914L112.588 115.164H105.711H67.5877ZM38.8988 73.1306L70.0227 109.914H101.268L70.8057 73.9121L70.1444 73.1306H38.8988ZM70.1704 67.8806L70.8057 67.1298L101.266 31.1306H70.0204L38.9248 67.8806H70.1704Z" fill="white"/>
</svg>
