<svg width="651" height="148" viewBox="0 0 651 148" fill="none" xmlns="http://www.w3.org/2000/svg">
<path d="M115.515 91.0204C115.515 85.1404 116.705 79.9955 119.085 75.5855C121.465 71.1056 124.72 67.6406 128.85 65.1907C133.05 62.7407 137.705 61.5157 142.815 61.5157C147.854 61.5157 152.229 62.6007 155.939 64.7707C159.649 66.9407 162.414 69.6706 164.234 72.9606V62.4607H173.894V120H164.234V109.29C162.344 112.65 159.509 115.45 155.729 117.69C152.019 119.86 147.679 120.945 142.71 120.945C137.6 120.945 132.98 119.685 128.85 117.165C124.72 114.645 121.465 111.11 119.085 106.56C116.705 102.01 115.515 96.8303 115.515 91.0204ZM164.234 91.1254C164.234 86.7854 163.359 83.0055 161.609 79.7855C159.859 76.5655 157.479 74.1156 154.469 72.4356C151.529 70.6856 148.274 69.8106 144.705 69.8106C141.135 69.8106 137.88 70.6506 134.94 72.3306C132 74.0106 129.655 76.4605 127.905 79.6805C126.155 82.9005 125.28 86.6804 125.28 91.0204C125.28 95.4303 126.155 99.2803 127.905 102.57C129.655 105.79 132 108.275 134.94 110.025C137.88 111.705 141.135 112.545 144.705 112.545C148.274 112.545 151.529 111.705 154.469 110.025C157.479 108.275 159.859 105.79 161.609 102.57C163.359 99.2803 164.234 95.4653 164.234 91.1254ZM210.411 120.945C206.001 120.945 202.046 120.21 198.546 118.74C195.046 117.2 192.281 115.1 190.251 112.44C188.221 109.71 187.101 106.595 186.891 103.095H196.761C197.041 105.965 198.371 108.31 200.751 110.13C203.201 111.95 206.386 112.86 210.306 112.86C213.946 112.86 216.816 112.055 218.916 110.445C221.016 108.835 222.066 106.805 222.066 104.355C222.066 101.835 220.946 99.9802 218.706 98.7903C216.466 97.5303 213.001 96.3053 208.311 95.1153C204.041 93.9953 200.541 92.8753 197.811 91.7553C195.151 90.5654 192.841 88.8504 190.881 86.6104C188.991 84.3004 188.046 81.2905 188.046 77.5805C188.046 74.6406 188.921 71.9456 190.671 69.4956C192.421 67.0457 194.906 65.1207 198.126 63.7207C201.346 62.2507 205.021 61.5157 209.151 61.5157C215.521 61.5157 220.666 63.1257 224.586 66.3457C228.506 69.5656 230.605 73.9756 230.885 79.5755H221.331C221.121 76.5655 219.896 74.1506 217.656 72.3306C215.486 70.5106 212.546 69.6006 208.836 69.6006C205.406 69.6006 202.676 70.3356 200.646 71.8056C198.616 73.2756 197.601 75.2006 197.601 77.5805C197.601 79.4705 198.196 81.0455 199.386 82.3055C200.646 83.4954 202.186 84.4754 204.006 85.2454C205.896 85.9454 208.486 86.7504 211.776 87.6604C215.906 88.7804 219.266 89.9004 221.856 91.0204C224.446 92.0703 226.651 93.6803 228.471 95.8503C230.36 98.0203 231.34 100.855 231.41 104.355C231.41 107.505 230.535 110.34 228.786 112.86C227.036 115.38 224.551 117.375 221.331 118.845C218.181 120.245 214.541 120.945 210.411 120.945ZM249.834 53.1158C248.014 53.1158 246.474 52.4858 245.214 51.2258C243.954 49.9659 243.324 48.4259 243.324 46.6059C243.324 44.7859 243.954 43.2459 245.214 41.986C246.474 40.726 248.014 40.096 249.834 40.096C251.584 40.096 253.054 40.726 254.244 41.986C255.504 43.2459 256.134 44.7859 256.134 46.6059C256.134 48.4259 255.504 49.9659 254.244 51.2258C253.054 52.4858 251.584 53.1158 249.834 53.1158ZM254.454 62.4607V120H244.899V62.4607H254.454ZM280.293 73.0656C282.183 69.7756 284.983 67.0457 288.693 64.8757C292.473 62.6357 296.848 61.5157 301.818 61.5157C306.928 61.5157 311.548 62.7407 315.678 65.1907C319.878 67.6406 323.168 71.1056 325.548 75.5855C327.928 79.9955 329.118 85.1404 329.118 91.0204C329.118 96.8303 327.928 102.01 325.548 106.56C323.168 111.11 319.878 114.645 315.678 117.165C311.548 119.685 306.928 120.945 301.818 120.945C296.918 120.945 292.578 119.86 288.798 117.69C285.088 115.45 282.253 112.685 280.293 109.395V147.3H270.738V62.4607H280.293V73.0656ZM319.353 91.0204C319.353 86.6804 318.478 82.9005 316.728 79.6805C314.978 76.4605 312.598 74.0106 309.588 72.3306C306.648 70.6506 303.393 69.8106 299.823 69.8106C296.323 69.8106 293.068 70.6856 290.058 72.4356C287.118 74.1156 284.738 76.6005 282.918 79.8905C281.168 83.1105 280.293 86.8554 280.293 91.1254C280.293 95.4653 281.168 99.2803 282.918 102.57C284.738 105.79 287.118 108.275 290.058 110.025C293.068 111.705 296.323 112.545 299.823 112.545C303.393 112.545 306.648 111.705 309.588 110.025C312.598 108.275 314.978 105.79 316.728 102.57C318.478 99.2803 319.353 95.4303 319.353 91.0204ZM338.124 91.0204C338.124 85.1404 339.314 79.9955 341.694 75.5855C344.074 71.1056 347.329 67.6406 351.459 65.1907C355.659 62.7407 360.314 61.5157 365.424 61.5157C370.464 61.5157 374.839 62.6007 378.549 64.7707C382.259 66.9407 385.024 69.6706 386.844 72.9606V62.4607H396.504V120H386.844V109.29C384.954 112.65 382.119 115.45 378.339 117.69C374.629 119.86 370.289 120.945 365.319 120.945C360.209 120.945 355.589 119.685 351.459 117.165C347.329 114.645 344.074 111.11 341.694 106.56C339.314 102.01 338.124 96.8303 338.124 91.0204ZM386.844 91.1254C386.844 86.7854 385.969 83.0055 384.219 79.7855C382.469 76.5655 380.089 74.1156 377.079 72.4356C374.139 70.6856 370.884 69.8106 367.314 69.8106C363.744 69.8106 360.489 70.6506 357.549 72.3306C354.609 74.0106 352.264 76.4605 350.514 79.6805C348.764 82.9005 347.889 86.6804 347.889 91.0204C347.889 95.4303 348.764 99.2803 350.514 102.57C352.264 105.79 354.609 108.275 357.549 110.025C360.489 111.705 363.744 112.545 367.314 112.545C370.884 112.545 374.139 111.705 377.079 110.025C380.089 108.275 382.469 105.79 384.219 102.57C385.969 99.2803 386.844 95.4653 386.844 91.1254ZM441.21 61.4107C445.55 61.4107 449.47 62.3557 452.97 64.2457C456.47 66.0657 459.2 68.8306 461.16 72.5406C463.19 76.2505 464.205 80.7655 464.205 86.0854V120H454.755V87.4504C454.755 81.7105 453.32 77.3355 450.45 74.3256C447.58 71.2456 443.66 69.7056 438.69 69.7056C433.65 69.7056 429.625 71.2806 426.615 74.4306C423.675 77.5805 422.205 82.1655 422.205 88.1854V120H412.651V42.301H422.205V70.6506C424.095 67.7106 426.685 65.4357 429.975 63.8257C433.335 62.2157 437.08 61.4107 441.21 61.4107ZM476.243 91.0204C476.243 85.1404 477.433 79.9955 479.813 75.5855C482.193 71.1056 485.448 67.6406 489.578 65.1907C493.778 62.7407 498.433 61.5157 503.543 61.5157C508.582 61.5157 512.957 62.6007 516.667 64.7707C520.377 66.9407 523.142 69.6706 524.962 72.9606V62.4607H534.622V120H524.962V109.29C523.072 112.65 520.237 115.45 516.457 117.69C512.747 119.86 508.407 120.945 503.438 120.945C498.328 120.945 493.708 119.685 489.578 117.165C485.448 114.645 482.193 111.11 479.813 106.56C477.433 102.01 476.243 96.8303 476.243 91.0204ZM524.962 91.1254C524.962 86.7854 524.087 83.0055 522.337 79.7855C520.587 76.5655 518.207 74.1156 515.197 72.4356C512.257 70.6856 509.002 69.8106 505.432 69.8106C501.863 69.8106 498.608 70.6506 495.668 72.3306C492.728 74.0106 490.383 76.4605 488.633 79.6805C486.883 82.9005 486.008 86.6804 486.008 91.0204C486.008 95.4303 486.883 99.2803 488.633 102.57C490.383 105.79 492.728 108.275 495.668 110.025C498.608 111.705 501.863 112.545 505.432 112.545C509.002 112.545 512.257 111.705 515.197 110.025C518.207 108.275 520.587 105.79 522.337 102.57C524.087 99.2803 524.962 95.4653 524.962 91.1254ZM619.963 61.4107C624.443 61.4107 628.433 62.3557 631.933 64.2457C635.433 66.0657 638.198 68.8306 640.228 72.5406C642.258 76.2505 643.273 80.7655 643.273 86.0854V120H633.823V87.4504C633.823 81.7105 632.388 77.3355 629.518 74.3256C626.718 71.2456 622.903 69.7056 618.073 69.7056C613.103 69.7056 609.148 71.3156 606.208 74.5356C603.268 77.6855 601.798 82.2705 601.798 88.2904V120H592.348V87.4504C592.348 81.7105 590.913 77.3355 588.043 74.3256C585.244 71.2456 581.429 69.7056 576.599 69.7056C571.629 69.7056 567.674 71.3156 564.734 74.5356C561.794 77.6855 560.324 82.2705 560.324 88.2904V120H550.769V62.4607H560.324V70.7556C562.214 67.7456 564.734 65.4357 567.884 63.8257C571.104 62.2157 574.639 61.4107 578.489 61.4107C583.319 61.4107 587.588 62.4957 591.298 64.6657C595.008 66.8357 597.773 70.0206 599.593 74.2206C601.203 70.1606 603.863 67.0107 607.573 64.7707C611.283 62.5307 615.413 61.4107 619.963 61.4107Z" fill="#0096C7"/>
<path fill-rule="evenodd" clip-rule="evenodd" d="M51.3829 119.545L5.60209 65.439L1.14015 60.1657L1.03763 60.0445H1.03463H0.999939H0.99694L0.999939 60.041L1.01728 60.0205L0.999939 60H1.03463L1.03763 59.9965L1.12207 59.8967L5.60209 54.602L51.3799 0.5H102.21H111.38L105.457 7.5L61.0173 60.0205L105.46 112.545L111.383 119.545H102.213H51.3829ZM13.131 63.5L54.6296 112.545H96.2904L55.6735 64.5421L54.7918 63.5H13.131ZM54.8265 56.5L55.6735 55.4989L96.2874 7.5H54.6266L13.1657 56.5H54.8265Z" fill="#0096C7"/>
</svg>
