<svg width="170" height="41" viewBox="0 0 170 41" fill="none" xmlns="http://www.w3.org/2000/svg">
<path d="M29.8073 26.2403C29.8073 24.7136 30.1162 23.3778 30.7342 22.2328C31.3521 21.0696 32.1972 20.17 33.2695 19.5339C34.36 18.8978 35.5686 18.5797 36.8953 18.5797C38.2039 18.5797 39.3398 18.8614 40.303 19.4248C41.2663 19.9883 41.9842 20.6971 42.4567 21.5513V18.8251H44.9648V33.7645H42.4567V30.9838C41.966 31.8562 41.2299 32.5832 40.2485 33.1648C39.2853 33.7282 38.1585 34.0099 36.8681 34.0099C35.5413 34.0099 34.3418 33.6828 33.2695 33.0285C32.1972 32.3742 31.3521 31.4564 30.7342 30.275C30.1162 29.0937 29.8073 27.7488 29.8073 26.2403ZM42.4567 26.2676C42.4567 25.1407 42.2295 24.1593 41.7752 23.3233C41.3208 22.4873 40.7029 21.8511 39.9214 21.415C39.1581 20.9606 38.3129 20.7334 37.386 20.7334C36.4591 20.7334 35.614 20.9515 34.8507 21.3877C34.0874 21.8239 33.4785 22.46 33.0242 23.296C32.5698 24.132 32.3426 25.1135 32.3426 26.2403C32.3426 27.3853 32.5698 28.3849 33.0242 29.2391C33.4785 30.0751 34.0874 30.7203 34.8507 31.1747C35.614 31.6109 36.4591 31.829 37.386 31.829C38.3129 31.829 39.1581 31.6109 39.9214 31.1747C40.7029 30.7203 41.3208 30.0751 41.7752 29.2391C42.2295 28.3849 42.4567 27.3944 42.4567 26.2676ZM54.4459 34.0099C53.301 34.0099 52.2741 33.8191 51.3654 33.4374C50.4566 33.0376 49.7387 32.4923 49.2117 31.8017C48.6846 31.0929 48.3938 30.2841 48.3393 29.3754H50.9019C50.9746 30.1206 51.3199 30.7294 51.9379 31.2019C52.574 31.6745 53.4009 31.9107 54.4187 31.9107C55.3638 31.9107 56.1089 31.7017 56.6541 31.2837C57.1994 30.8657 57.472 30.3386 57.472 29.7025C57.472 29.0483 57.1812 28.5666 56.5996 28.2577C56.018 27.9305 55.1184 27.6125 53.9007 27.3035C52.7921 27.0127 51.8833 26.7219 51.1745 26.4311C50.4839 26.1222 49.8841 25.6769 49.3753 25.0953C48.8845 24.4955 48.6392 23.714 48.6392 22.7508C48.6392 21.9875 48.8664 21.2877 49.3207 20.6516C49.7751 20.0155 50.4203 19.5157 51.2563 19.1522C52.0923 18.7706 53.0465 18.5797 54.1188 18.5797C55.7727 18.5797 57.1085 18.9977 58.1263 19.8338C59.1441 20.6698 59.6893 21.8148 59.762 23.2688H57.2812C57.2266 22.4873 56.9086 21.8602 56.327 21.3877C55.7636 20.9152 55.0003 20.6789 54.037 20.6789C53.1465 20.6789 52.4377 20.8697 51.9106 21.2514C51.3835 21.6331 51.12 22.1329 51.12 22.7508C51.12 23.2415 51.2745 23.6504 51.5835 23.9776C51.9106 24.2865 52.3104 24.541 52.783 24.7409C53.2737 24.9226 53.9461 25.1316 54.8003 25.3679C55.8726 25.6587 56.745 25.9495 57.4175 26.2403C58.0899 26.5129 58.6624 26.9309 59.135 27.4943C59.6257 28.0577 59.8801 28.7938 59.8983 29.7025C59.8983 30.5204 59.6711 31.2565 59.2168 31.9107C58.7624 32.565 58.1172 33.083 57.2812 33.4647C56.4633 33.8282 55.5182 34.0099 54.4459 34.0099ZM64.6817 16.3988C64.2091 16.3988 63.8093 16.2352 63.4822 15.9081C63.155 15.5809 62.9914 15.1811 62.9914 14.7086C62.9914 14.236 63.155 13.8362 63.4822 13.509C63.8093 13.1819 64.2091 13.0183 64.6817 13.0183C65.136 13.0183 65.5177 13.1819 65.8267 13.509C66.1538 13.8362 66.3174 14.236 66.3174 14.7086C66.3174 15.1811 66.1538 15.5809 65.8267 15.9081C65.5177 16.2352 65.136 16.3988 64.6817 16.3988ZM65.8812 18.8251V33.7645H63.4004V18.8251H65.8812ZM72.5901 21.5785C73.0809 20.7243 73.8078 20.0155 74.7711 19.4521C75.7525 18.8705 76.8884 18.5797 78.1788 18.5797C79.5055 18.5797 80.7051 18.8978 81.7774 19.5339C82.8678 20.17 83.722 21.0696 84.34 22.2328C84.9579 23.3778 85.2669 24.7136 85.2669 26.2403C85.2669 27.7488 84.9579 29.0937 84.34 30.275C83.722 31.4564 82.8678 32.3742 81.7774 33.0285C80.7051 33.6828 79.5055 34.0099 78.1788 34.0099C76.9066 34.0099 75.7798 33.7282 74.7983 33.1648C73.8351 32.5832 73.099 31.8653 72.5901 31.0111V40.8526H70.1093V18.8251H72.5901V21.5785ZM82.7315 26.2403C82.7315 25.1135 82.5043 24.132 82.05 23.296C81.5956 22.46 80.9777 21.8239 80.1962 21.3877C79.4328 20.9515 78.5877 20.7334 77.6608 20.7334C76.7521 20.7334 75.907 20.9606 75.1255 21.415C74.3622 21.8511 73.7442 22.4963 73.2717 23.3505C72.8173 24.1866 72.5901 25.1589 72.5901 26.2676C72.5901 27.3944 72.8173 28.3849 73.2717 29.2391C73.7442 30.0751 74.3622 30.7203 75.1255 31.1747C75.907 31.6109 76.7521 31.829 77.6608 31.829C78.5877 31.829 79.4328 31.6109 80.1962 31.1747C80.9777 30.7203 81.5956 30.0751 82.05 29.2391C82.5043 28.3849 82.7315 27.3853 82.7315 26.2403ZM87.6054 26.2403C87.6054 24.7136 87.9144 23.3778 88.5323 22.2328C89.1503 21.0696 89.9954 20.17 91.0677 19.5339C92.1581 18.8978 93.3667 18.5797 94.6935 18.5797C96.002 18.5797 97.138 18.8614 98.1012 19.4248C99.0645 19.9883 99.7823 20.6971 100.255 21.5513V18.8251H102.763V33.7645H100.255V30.9838C99.7642 31.8562 99.0281 32.5832 98.0467 33.1648C97.0834 33.7282 95.9566 34.0099 94.6662 34.0099C93.3395 34.0099 92.14 33.6828 91.0677 33.0285C89.9954 32.3742 89.1503 31.4564 88.5323 30.275C87.9144 29.0937 87.6054 27.7488 87.6054 26.2403ZM100.255 26.2676C100.255 25.1407 100.028 24.1593 99.5733 23.3233C99.119 22.4873 98.501 21.8511 97.7195 21.415C96.9562 20.9606 96.1111 20.7334 95.1842 20.7334C94.2573 20.7334 93.4122 20.9515 92.6488 21.3877C91.8855 21.8239 91.2767 22.46 90.8223 23.296C90.3679 24.132 90.1408 25.1135 90.1408 26.2403C90.1408 27.3853 90.3679 28.3849 90.8223 29.2391C91.2767 30.0751 91.8855 30.7203 92.6488 31.1747C93.4122 31.6109 94.2573 31.829 95.1842 31.829C96.1111 31.829 96.9562 31.6109 97.7195 31.1747C98.501 30.7203 99.119 30.0751 99.5733 29.2391C100.028 28.3849 100.255 27.3944 100.255 26.2676ZM114.371 18.5525C115.497 18.5525 116.515 18.7978 117.424 19.2885C118.333 19.7611 119.041 20.479 119.55 21.4422C120.077 22.4055 120.341 23.5777 120.341 24.959V33.7645H117.887V25.3134C117.887 23.8231 117.515 22.6872 116.77 21.9057C116.024 21.106 115.007 20.7062 113.716 20.7062C112.408 20.7062 111.363 21.1151 110.581 21.9329C109.818 22.7508 109.436 23.9412 109.436 25.5042V33.7645H106.955V13.5908H109.436V20.9515C109.927 20.1882 110.599 19.5975 111.454 19.1795C112.326 18.7615 113.298 18.5525 114.371 18.5525ZM123.466 26.2403C123.466 24.7136 123.775 23.3778 124.393 22.2328C125.011 21.0696 125.856 20.17 126.929 19.5339C128.019 18.8978 129.228 18.5797 130.554 18.5797C131.863 18.5797 132.999 18.8614 133.962 19.4248C134.925 19.9883 135.643 20.6971 136.116 21.5513V18.8251H138.624V33.7645H136.116V30.9838C135.625 31.8562 134.889 32.5832 133.908 33.1648C132.944 33.7282 131.818 34.0099 130.527 34.0099C129.2 34.0099 128.001 33.6828 126.929 33.0285C125.856 32.3742 125.011 31.4564 124.393 30.275C123.775 29.0937 123.466 27.7488 123.466 26.2403ZM136.116 26.2676C136.116 25.1407 135.889 24.1593 135.434 23.3233C134.98 22.4873 134.362 21.8511 133.58 21.415C132.817 20.9606 131.972 20.7334 131.045 20.7334C130.118 20.7334 129.273 20.9515 128.51 21.3877C127.746 21.8239 127.138 22.46 126.683 23.296C126.229 24.132 126.002 25.1135 126.002 26.2403C126.002 27.3853 126.229 28.3849 126.683 29.2391C127.138 30.0751 127.746 30.7203 128.51 31.1747C129.273 31.6109 130.118 31.829 131.045 31.829C131.972 31.829 132.817 31.6109 133.58 31.1747C134.362 30.7203 134.98 30.0751 135.434 29.2391C135.889 28.3849 136.116 27.3944 136.116 26.2676ZM160.782 18.5525C161.945 18.5525 162.981 18.7978 163.89 19.2885C164.798 19.7611 165.516 20.479 166.043 21.4422C166.57 22.4055 166.834 23.5777 166.834 24.959V33.7645H164.38V25.3134C164.38 23.8231 164.008 22.6872 163.263 21.9057C162.536 21.106 161.545 20.7062 160.291 20.7062C159.001 20.7062 157.974 21.1242 157.21 21.9602C156.447 22.778 156.065 23.9685 156.065 25.5315V33.7645H153.612V25.3134C153.612 23.8231 153.239 22.6872 152.494 21.9057C151.767 21.106 150.777 20.7062 149.523 20.7062C148.232 20.7062 147.205 21.1242 146.442 21.9602C145.679 22.778 145.297 23.9685 145.297 25.5315V33.7645H142.816V18.8251H145.297V20.9788C145.788 20.1973 146.442 19.5975 147.26 19.1795C148.096 18.7615 149.014 18.5525 150.013 18.5525C151.267 18.5525 152.376 18.8342 153.339 19.3976C154.303 19.961 155.02 20.7879 155.493 21.8784C155.911 20.8243 156.602 20.0064 157.565 19.4248C158.528 18.8433 159.6 18.5525 160.782 18.5525Z" fill="white"/>
<path fill-rule="evenodd" clip-rule="evenodd" d="M13.116 37.7987L1.11128 20.4931L0.0204371 18.9206L0.0106017 18.9064H0.00983471H0.000766978H0L0.000766978 18.9053L0.00530085 18.8988L0.000766978 18.8922H0.00983471L0.0106017 18.8911L0.018244 18.8801L1.11128 17.3045L13.1153 0H26.522H28.7339L27.4732 1.81747L15.624 18.8988L27.4739 35.9812L28.7347 37.7987H26.5227H13.116ZM2.34359 18.7167L2.21726 18.8988L2.21725 18.8989L2.34359 19.081V18.7167ZM2.99268 17.781H14.1874L25.2612 1.81747H14.0664L2.99268 17.781ZM14.1784 20.0036H2.98359L14.0672 35.9812H25.262L14.1784 20.0036Z" fill="white"/>
</svg>
